<svg xmlns="http://www.w3.org/2000/svg" version="1.1" xmlns:xlink="http://www.w3.org/1999/xlink" xmlns:svgjs="http://svgjs.dev/svgjs" width="2000" height="1247" viewBox="0 0 2000 1247"><g transform="matrix(1,0,0,1,-1.2121212121212466,0.504858299595071)"><svg viewBox="0 0 396 247" data-background-color="#ffffff" preserveAspectRatio="xMidYMid meet" height="1247" width="2000" xmlns="http://www.w3.org/2000/svg" xmlns:xlink="http://www.w3.org/1999/xlink"><g id="tight-bounds" transform="matrix(1,0,0,1,0.2400000000000091,-0.09999999999999432)"><svg viewBox="0 0 395.52 247.2" height="247.2" width="395.52"><g><svg></svg></g><g><svg viewBox="0 0 395.52 247.2" height="247.2" width="395.52"><g transform="matrix(1,0,0,1,149.55935060240964,47.21520000000001)"><svg viewBox="0 0 96.40129879518072 152.76959999999997" height="152.76959999999997" width="96.40129879518072"><g><svg viewBox="0 0 96.40129879518072 152.76959999999997" height="152.76959999999997" width="96.40129879518072"><g><svg viewBox="0 0 96.40129879518072 152.76959999999997" height="152.76959999999997" width="96.40129879518072"><g><svg viewBox="0 0 96.40129879518072 152.76959999999997" height="152.76959999999997" width="96.40129879518072"><g><svg viewBox="0 0 96.40129879518072 152.76959999999997" height="152.76959999999997" width="96.40129879518072"><g><svg viewBox="0 0 96.40129879518072 152.76959999999997" height="152.76959999999997" width="96.40129879518072"><g transform="matrix(1,0,0,1,0,0)"><svg width="96.40129879518072" viewBox="0.800000011920929 -32.599998474121094 20.950000762939453 33.19999694824219" height="152.76959999999997" data-palette-color="#ee3e38"><path d="M11.3 0.6L11.3 0.6Q7.55 0.6 5.03-0.85 2.5-2.3 0.8-5.3L0.8-5.3 5.8-9Q6.7-7.35 7.9-6.55 9.1-5.75 10.35-5.75L10.35-5.75Q12.35-5.75 13.38-6.98 14.4-8.2 14.4-11.45L14.4-11.45 14.4-32.6 21.75-32.6 21.75-10.85Q21.75-8.5 21.13-6.4 20.5-4.3 19.23-2.75 17.95-1.2 15.98-0.3 14 0.6 11.3 0.6Z" opacity="1" transform="matrix(1,0,0,1,0,0)" fill="#ee3e38" class="undefined-text-0" data-fill-palette-color="primary" id="text-0"></path></svg></g></svg></g></svg></g></svg></g></svg></g></svg></g></svg></g><path d="M63.659 41.215L63.659 0 310.859 0 310.859 247.2 63.659 247.2 63.659 205.985 77.436 205.985 77.436 233.423 297.082 233.423 297.082 13.777 77.436 13.777 77.436 41.215Z" fill="#ee3e38" stroke="transparent" data-fill-palette-color="primary"></path></svg></g><defs></defs></svg><rect width="395.52" height="247.2" fill="none" stroke="none" visibility="hidden"></rect></g></svg></g></svg>